name ./resultDataOpenSim/trcMotMarkerGrf/sub06/grf-12-01.mot
datacolumns 19
datarows 22
range 0.48800000 0.57200000
endheader

                time	     ground_force_vx	     ground_force_vy	     ground_force_vz	     ground_force_px	     ground_force_py	     ground_force_pz	   l_ground_force_vx	   l_ground_force_vy	   l_ground_force_vz	   l_ground_force_px	   l_ground_force_py	   l_ground_force_pz	     ground_torque_x	     ground_torque_y	     ground_torque_z	   l_ground_torque_x	   l_ground_torque_y	   l_ground_torque_z	
          0.48800000	        108.23042459	        677.57050318	        -45.04171514	         -0.76877245	          0.00000000	          0.09009792	          0.00000000	          0.00000000	          0.00000000	          0.00000000	          0.00000000	          0.00000000	          0.00000000	          1.05803500	          0.00000000	          0.00000000	          0.00000000	          0.00000000	
          0.49200000	        113.17775616	        687.95779939	        -47.20708678	         -0.76857130	          0.00000000	          0.09024170	          0.00000000	          0.00000000	          0.00000000	          0.00000000	          0.00000000	          0.00000000	          0.00000000	          1.03144518	          0.00000000	          0.00000000	          0.00000000	          0.00000000	
          0.49600000	        118.53769923	        698.01045220	        -49.55060677	         -0.76829803	          0.00000000	          0.09039132	          0.00000000	          0.00000000	          0.00000000	          0.00000000	          0.00000000	          0.00000000	          0.00000000	          0.95552906	          0.00000000	          0.00000000	          0.00000000	          0.00000000	
          0.50000000	        124.47734108	        707.85168257	        -51.83789767	         -0.76809126	          0.00000000	          0.09048113	          0.00000000	          0.00000000	          0.00000000	          0.00000000	          0.00000000	          0.00000000	          0.00000000	          0.84416097	          0.00000000	          0.00000000	          0.00000000	          0.00000000	
          0.50400000	        131.00346658	        717.40636864	        -53.80912138	         -0.76804108	          0.00000000	          0.09046775	          0.00000000	          0.00000000	          0.00000000	          0.00000000	          0.00000000	          0.00000000	          0.00000000	          0.72135856	          0.00000000	          0.00000000	          0.00000000	          0.00000000	
          0.50800000	        137.94907840	        726.32571063	        -55.21941229	         -0.76806235	          0.00000000	          0.09037473	          0.00000000	          0.00000000	          0.00000000	          0.00000000	          0.00000000	          0.00000000	          0.00000000	          0.61583586	          0.00000000	          0.00000000	          0.00000000	          0.00000000	
          0.51200000	        145.06071868	        734.15962552	        -55.87036883	         -0.76803867	          0.00000000	          0.09024206	          0.00000000	          0.00000000	          0.00000000	          0.00000000	          0.00000000	          0.00000000	          0.00000000	          0.55438866	          0.00000000	          0.00000000	          0.00000000	          0.00000000	
          0.51600000	        152.10013851	        740.65318411	        -55.65500921	         -0.76793676	          0.00000000	          0.09007884	          0.00000000	          0.00000000	          0.00000000	          0.00000000	          0.00000000	          0.00000000	          0.00000000	          0.55559112	          0.00000000	          0.00000000	          0.00000000	          0.00000000	
          0.52000000	        158.89839052	        745.85666030	        -54.58686043	         -0.76782619	          0.00000000	          0.08985258	          0.00000000	          0.00000000	          0.00000000	          0.00000000	          0.00000000	          0.00000000	          0.00000000	          0.62503421	          0.00000000	          0.00000000	          0.00000000	          0.00000000	
          0.52400000	        165.37430410	        749.89048099	        -52.79025282	         -0.76778153	          0.00000000	          0.08953883	          0.00000000	          0.00000000	          0.00000000	          0.00000000	          0.00000000	          0.00000000	          0.00000000	          0.75313848	          0.00000000	          0.00000000	          0.00000000	          0.00000000	
          0.52800000	        171.55497854	        752.63591587	        -50.46480038	         -0.76778917	          0.00000000	          0.08916848	          0.00000000	          0.00000000	          0.00000000	          0.00000000	          0.00000000	          0.00000000	          0.00000000	          0.91635600	          0.00000000	          0.00000000	          0.00000000	          0.00000000	
          0.53200000	        177.57575331	        753.76070818	        -47.85204763	         -0.76775112	          0.00000000	          0.08881643	          0.00000000	          0.00000000	          0.00000000	          0.00000000	          0.00000000	          0.00000000	          0.00000000	          1.08185778	          0.00000000	          0.00000000	          0.00000000	          0.00000000	
          0.53600000	        183.62839453	        753.09024582	        -45.20722758	         -0.76760034	          0.00000000	          0.08852550	          0.00000000	          0.00000000	          0.00000000	          0.00000000	          0.00000000	          0.00000000	          0.00000000	          1.21454586	          0.00000000	          0.00000000	          0.00000000	          0.00000000	
          0.54000000	        189.90480080	        750.84860695	        -42.75352512	         -0.76742668	          0.00000000	          0.08825891	          0.00000000	          0.00000000	          0.00000000	          0.00000000	          0.00000000	          0.00000000	          0.00000000	          1.28427091	          0.00000000	          0.00000000	          0.00000000	          0.00000000	
          0.54400000	        196.55649017	        747.39689192	        -40.62267442	         -0.76742227	          0.00000000	          0.08795253	          0.00000000	          0.00000000	          0.00000000	          0.00000000	          0.00000000	          0.00000000	          0.00000000	          1.27136327	          0.00000000	          0.00000000	          0.00000000	          0.00000000	
          0.54800000	        203.60941739	        742.75317927	        -38.82374026	         -0.76767332	          0.00000000	          0.08760754	          0.00000000	          0.00000000	          0.00000000	          0.00000000	          0.00000000	          0.00000000	          0.00000000	          1.16972351	          0.00000000	          0.00000000	          0.00000000	          0.00000000	
          0.55200000	        210.87121039	        736.50614012	        -37.26060392	         -0.76804894	          0.00000000	          0.08729897	          0.00000000	          0.00000000	          0.00000000	          0.00000000	          0.00000000	          0.00000000	          0.00000000	          0.98753072	          0.00000000	          0.00000000	          0.00000000	          0.00000000	
          0.55600000	        217.98331366	        728.23669569	        -35.77472637	         -0.76835133	          0.00000000	          0.08708757	          0.00000000	          0.00000000	          0.00000000	          0.00000000	          0.00000000	          0.00000000	          0.00000000	          0.74553147	          0.00000000	          0.00000000	          0.00000000	          0.00000000	
          0.56000000	        224.61437701	        717.90898207	        -34.18789857	         -0.76856334	          0.00000000	          0.08694897	          0.00000000	          0.00000000	          0.00000000	          0.00000000	          0.00000000	          0.00000000	          0.00000000	          0.47269701	          0.00000000	          0.00000000	          0.00000000	          0.00000000	
          0.56400000	        230.57048952	        705.75153819	        -32.34024574	         -0.76887479	          0.00000000	          0.08679938	          0.00000000	          0.00000000	          0.00000000	          0.00000000	          0.00000000	          0.00000000	          0.00000000	          0.19974614	          0.00000000	          0.00000000	          0.00000000	          0.00000000	
          0.56800000	        235.69587325	        691.77900128	        -30.12846859	         -0.76944777	          0.00000000	          0.08658360	          0.00000000	          0.00000000	          0.00000000	          0.00000000	          0.00000000	          0.00000000	          0.00000000	         -0.04767814	          0.00000000	          0.00000000	          0.00000000	          0.00000000	
          0.57200000	        239.72184344	        675.50621590	        -27.53905137	         -0.77021356	          0.00000000	          0.08633739	          0.00000000	          0.00000000	          0.00000000	          0.00000000	          0.00000000	          0.00000000	          0.00000000	         -0.25378457	          0.00000000	          0.00000000	          0.00000000	          0.00000000	
